<svg xmlns="http://www.w3.org/2000/svg" xmlns:xlink="http://www.w3.org/1999/xlink" width="1111" height="712.5" viewBox="0 0 1111 712.5"><defs><clipPath id="clip-path"><rect id="Rectangle_826" data-name="Rectangle 826" width="60" height="60" fill="#171717"></rect></clipPath><clipPath id="clip-path-2"><rect id="Rectangle_827" data-name="Rectangle 827" width="62.579" height="69.146" fill="#171717"></rect></clipPath><clipPath id="clip-path-3"><rect id="Rectangle_828" data-name="Rectangle 828" width="60.047" height="42.66" fill="#171717"></rect></clipPath><clipPath id="clip-path-4"><rect id="Rectangle_829" data-name="Rectangle 829" width="62.863" height="55.332" transform="translate(0 0)" fill="#171717"></rect></clipPath><clipPath id="clip-path-5"><rect id="Rectangle_831" data-name="Rectangle 831" width="60.047" height="32.035" fill="none"></rect></clipPath><clipPath id="clip-path-6"><rect id="Rectangle_832" data-name="Rectangle 832" width="61.935" height="52.829" fill="#171717"></rect></clipPath></defs><g id="Group_2236" data-name="Group 2236" transform="translate(-282 -2404)"><text id="Intermediate" transform="translate(282 2726)" font-size="24" font-family="SegoeUI, Segoe UI"><tspan x="0" y="0">Intermediate</tspan></text><text id="Beginner" transform="translate(282 3022)" font-size="24" font-family="SegoeUI, Segoe UI"><tspan x="0" y="0">Beginner</tspan></text><text id="Expert" transform="translate(282 2430)" font-size="24" font-family="SegoeUI, Segoe UI"><tspan x="0" y="0">Expert</tspan></text><g id="Group_2235" data-name="Group 2235" transform="translate(-160)"><g id="Rectangle_814" data-name="Rectangle 814" transform="translate(737 2410)" stroke="#707070" stroke-width="1"><rect width="102" height="617" stroke="none"></rect><rect x="0.5" y="0.5" width="101" height="616" fill="none"></rect></g><g id="Rectangle_814-2" data-name="Rectangle 814" transform="translate(839 2410)" stroke="#707070" stroke-width="1"><rect width="102" height="617" stroke="none"></rect><rect x="0.5" y="0.5" width="101" height="616" fill="none"></rect></g><g id="Rectangle_814-3" data-name="Rectangle 814" transform="translate(941 2410)" stroke="#707070" stroke-width="1"><rect width="102" height="617" stroke="none"></rect><rect x="0.5" y="0.5" width="101" height="616" fill="none"></rect></g><g id="Rectangle_814-4" data-name="Rectangle 814" transform="translate(1043 2410)" stroke="#707070" stroke-width="1"><rect width="102" height="617" stroke="none"></rect><rect x="0.5" y="0.5" width="101" height="616" fill="none"></rect></g><g id="Rectangle_814-5" data-name="Rectangle 814" transform="translate(1145 2410)" stroke="#707070" stroke-width="1"><rect width="102" height="617" stroke="none"></rect><rect x="0.5" y="0.5" width="101" height="616" fill="none"></rect></g><g id="Rectangle_814-6" data-name="Rectangle 814" transform="translate(1247 2410)" stroke="#707070" stroke-width="1"><rect width="102" height="617" stroke="none"></rect><rect x="0.5" y="0.5" width="101" height="616" fill="none"></rect></g><g id="Rectangle_814-7" data-name="Rectangle 814" transform="translate(1349 2410)" stroke="#707070" stroke-width="1"><rect width="102" height="617" stroke="none"></rect><rect x="0.5" y="0.5" width="101" height="616" fill="none"></rect></g><g id="Rectangle_814-8" data-name="Rectangle 814" transform="translate(1451 2410)" stroke="#707070" stroke-width="1"><rect width="102" height="617" stroke="none"></rect><rect x="0.5" y="0.5" width="101" height="616" fill="none"></rect></g><g id="Group_2217" data-name="Group 2217" transform="translate(758 3047.334)"><g id="Group_2216" data-name="Group 2216" clip-path="url(#clip-path)"><path id="Path_24201" data-name="Path 24201" d="M49.287,0H10.713A10.712,10.712,0,0,0,0,10.713V49.287A10.712,10.712,0,0,0,10.713,60H32.156V36.919H24.338V27.806h7.818V21.1c0-7.776,4.748-12.009,11.685-12.009a64.527,64.527,0,0,1,7.009.357v8.129H46.068c-3.775,0-4.505,1.793-4.505,4.426v5.8h9.024l-1.176,9.113H41.562V60h7.725A10.712,10.712,0,0,0,60,49.287V10.713A10.712,10.712,0,0,0,49.287,0" fill="#171717"></path></g></g><g id="Group_2220" data-name="Group 2220" transform="translate(860.979 3047.332)"><path id="Path_24202" data-name="Path 24202" d="M46.126,33.452,21.312,55.29a1.989,1.989,0,0,1-1.322.5c-.043,0-.087,0-.13,0a1.992,1.992,0,0,1-1.377-.676l-.422-.48a2.284,2.284,0,0,1,.15-3.186L44.158,27.027a24.968,24.968,0,0,1-.324-4A24.656,24.656,0,0,1,49.5,7.266,29.97,29.97,0,1,0,56.5,44.659,24.9,24.9,0,0,1,46.126,33.452" transform="translate(-0.219 -0.219)" fill="#171717" fill-rule="evenodd"></path><path id="Path_24203" data-name="Path 24203" d="M46.126,33.452,21.312,55.29a1.989,1.989,0,0,1-1.322.5c-.043,0-.087,0-.13,0a1.992,1.992,0,0,1-1.377-.676l-.422-.48a2.284,2.284,0,0,1,.15-3.186L44.158,27.027a24.968,24.968,0,0,1-.324-4A24.656,24.656,0,0,1,49.5,7.266,29.97,29.97,0,1,0,56.5,44.659,24.9,24.9,0,0,1,46.126,33.452Z" transform="translate(-0.219 -0.219)" fill="#171717" stroke="#211e1f" stroke-width="0.482"></path><path id="Path_24204" data-name="Path 24204" d="M364.344,500.1a5.147,5.147,0,1,0-5.14-5.154,5.158,5.158,0,0,0,5.14,5.154" transform="translate(-326.583 -445.321)" fill="#171717" fill-rule="evenodd"></path><path id="Path_24205" data-name="Path 24205" d="M133.6,387.538a5.147,5.147,0,1,0-5.14-5.154,5.158,5.158,0,0,0,5.14,5.154" transform="translate(-116.797 -342.985)" fill="#171717" fill-rule="evenodd"></path><path id="Path_24206" data-name="Path 24206" d="M116.719,201.82a5.147,5.147,0,1,0-5.14-5.154,5.158,5.158,0,0,0,5.14,5.154" transform="translate(-101.446 -174.133)" fill="#171717" fill-rule="evenodd"></path><path id="Path_24207" data-name="Path 24207" d="M268.671,72.38a5.147,5.147,0,1,0-5.14-5.154,5.158,5.158,0,0,0,5.14,5.154" transform="translate(-239.598 -56.449)" fill="#171717" fill-rule="evenodd"></path><path id="Path_24208" data-name="Path 24208" d="M509.174,154.733a4.8,4.8,0,0,1-.513-5.208,5.209,5.209,0,0,1,.9-1.171c.145-.145.234-.178.39-.334l3.29-2.264c.6-.357,1.126-.68,1.673-1.071a9.9,9.9,0,0,0,3.245-3.7,5.8,5.8,0,0,1,.491-.914c.022.178.335,1,.435,1.327,1.037,3.535,1.126,8.911-1.1,11.91a9.516,9.516,0,0,1-1.461,1.595,5.966,5.966,0,0,1-4.149,1.506,4.216,4.216,0,0,1-3.2-1.673" transform="translate(-461.971 -127.348)" fill="#171717" fill-rule="evenodd"></path><path id="Path_24209" data-name="Path 24209" d="M202.15,319.447l-.422-.48a1.272,1.272,0,0,1,.083-1.767l27.073-25.476a4.461,4.461,0,0,0,.859,1.662,4.691,4.691,0,0,0,1.885,1.428l-28.09,24.722a.983.983,0,0,1-1.387-.088" transform="translate(-183.119 -265.232)" fill="#171717" fill-rule="evenodd"></path></g><g id="Group_2223" data-name="Group 2223" transform="translate(961 3047.354)"><path id="Path_24210" data-name="Path 24210" d="M493.41,506.459l9.123-7.441,10.7,14.5,6.577-5.364-10.7-14.5,8.7-7.094-25.529-8.12Z" transform="translate(-457.227 -444.373)" fill="#171717"></path><g id="Group_2222" data-name="Group 2222"><g id="Group_2221" data-name="Group 2221" clip-path="url(#clip-path-2)"><path id="Path_24211" data-name="Path 24211" d="M33.284,56.421c.28-.229.578-.481.889-.753l-.147-4.729c-.844.9-1.655,1.662-2.375,2.293V42.116q1.062,0,2.1.056l-.11-3.531q-.989-.046-1.992-.048V31.864h10.4a25.525,25.525,0,0,1-.176,3.149l3.493.927a28.687,28.687,0,0,0,.27-4.076H56.068A26.637,26.637,0,0,1,54.8,38.441l3.47.921A30.133,30.133,0,0,0,29.857,0a30.095,30.095,0,0,0,0,60.187,29.739,29.739,0,0,0,4.446-.333l-.111-3.571c-.3.051-.6.1-.908.138M52.437,16.536a26.569,26.569,0,0,1,3.632,11.788H45.407a34.658,34.658,0,0,0-2.166-8.359,40.817,40.817,0,0,0,9.2-3.429m-2.021-2.953a37.331,37.331,0,0,1-8.637,3.072,61.318,61.318,0,0,0-8.8-12.926,26.2,26.2,0,0,1,17.44,9.854M31.651,7.6a56.565,56.565,0,0,1,6.488,9.712,47.718,47.718,0,0,1-6.488.419Zm0,13.684.189,0A51.409,51.409,0,0,0,37.267,21q1.228-.13,2.427-.323a32.052,32.052,0,0,1,2.1,7.646H31.651ZM26.01,3.826A49.108,49.108,0,0,0,21.09,9.047a41.558,41.558,0,0,0-4.434,6.635,65.473,65.473,0,0,1-7.177-2.325A26.211,26.211,0,0,1,26.01,3.826M7.39,16.345a65.9,65.9,0,0,0,7.734,2.6,29.411,29.411,0,0,0-2.195,9.379H3.646A26.572,26.572,0,0,1,7.39,16.345m.26,27.918a26.571,26.571,0,0,1-4-12.4h9.309a28.586,28.586,0,0,0,2.367,9.383,60.019,60.019,0,0,0-7.673,3.016m2.126,2.929a58.222,58.222,0,0,1,7.157-2.73,49.556,49.556,0,0,0,9.915,12.009,26.172,26.172,0,0,1-17.072-9.28m18.289,5.652a45.287,45.287,0,0,1-7.6-9.347c.613-.146,1.238-.285,1.879-.414a50.009,50.009,0,0,1,5.721-.815Zm0-14.119a52.629,52.629,0,0,0-6.547.911c-.943.191-1.856.4-2.739.626a25.647,25.647,0,0,1-2.224-8.4h11.51Zm0-10.4H16.521a26.351,26.351,0,0,1,2.1-8.524c1.031.224,2.108.434,3.226.622q3.155.53,6.218.733Zm0-10.725c-1.975-.137-3.831-.371-5.518-.651q-1.187-.2-2.31-.429a38.88,38.88,0,0,1,3.635-5.333,45.538,45.538,0,0,1,4.193-4.515Z" fill="#171717"></path></g></g></g><g id="Group_2159" data-name="Group 2159" transform="translate(1062 3044.504)"><g id="Group_2224" data-name="Group 2224" transform="translate(0 -0.004)"><path id="Path_24182" data-name="Path 24182" d="M24.924,0A24.924,24.924,0,1,1,7.3,7.3,24.846,24.846,0,0,1,24.924,0M38.98,10.863A19.879,19.879,0,1,0,44.8,24.92,19.816,19.816,0,0,0,38.98,10.863" transform="translate(0 0.004)" fill="#171717" stroke="#fff" stroke-width="1" fill-rule="evenodd"></path><path id="Path_24183" data-name="Path 24183" d="M585.591,635.088a3.372,3.372,0,0,1,4.768-4.768L610.68,650.64a3.372,3.372,0,0,1-4.768,4.768Z" transform="translate(-547.829 -589.743)" fill="#171717" stroke="#fff" stroke-width="1" fill-rule="evenodd"></path></g></g><g id="Group_2226" data-name="Group 2226" transform="translate(1369.977 3058.324)"><g id="Group_2225" data-name="Group 2225" clip-path="url(#clip-path-3)"><path id="Path_24212" data-name="Path 24212" d="M30.016,97.8,0,79.911V111.9a5.111,5.111,0,0,0,4.85,5.311H55.2a5.111,5.111,0,0,0,4.85-5.311V80.255Z" transform="translate(0 -74.554)" fill="#171717"></path><path id="Path_24213" data-name="Path 24213" d="M43.8,19.416,72.992,2.361A4.76,4.76,0,0,0,68.966,0H18.619a4.722,4.722,0,0,0-3.861,2.107Z" transform="translate(-13.769 -0.001)" fill="#171717"></path></g></g><g id="Group_2228" data-name="Group 2228" transform="translate(1165 3047.332)"><g id="Group_2227" data-name="Group 2227" transform="translate(0 0.002)" clip-path="url(#clip-path-4)"><path id="Path_24214" data-name="Path 24214" d="M38.406,452.48H7.709A7.709,7.709,0,0,1,0,444.771V426.812A7.709,7.709,0,0,1,7.709,419.1h30.7a7.709,7.709,0,0,1,7.709,7.709v17.959a7.709,7.709,0,0,1-7.709,7.709" transform="translate(0 -397.148)" fill="#171717"></path><path id="Path_24215" data-name="Path 24215" d="M49.918,0a9.467,9.467,0,1,0,9.467,9.467A9.467,9.467,0,0,0,49.918,0" transform="translate(-38.331 -0.002)" fill="#171717"></path><path id="Path_24216" data-name="Path 24216" d="M487.861,0a9.467,9.467,0,1,0,9.468,9.467A9.467,9.467,0,0,0,487.861,0" transform="translate(-453.333 -0.002)" fill="#171717"></path><path id="Path_24217" data-name="Path 24217" d="M946.278,466.58l-11.246,6.1a1.335,1.335,0,0,0-.7,1.174V487.4a1.335,1.335,0,0,0,.7,1.174l11.246,6.1a1.335,1.335,0,0,0,1.972-1.174V467.754a1.335,1.335,0,0,0-1.972-1.174" transform="translate(-885.387 -441.983)" fill="#171717"></path></g></g><g id="Group_2232" data-name="Group 2232" transform="translate(1471.977 3063.637)"><g id="Group_2231" data-name="Group 2231" clip-path="url(#clip-path-5)"><path id="Path_24219" data-name="Path 24219" d="M426.009,32.036a1.811,1.811,0,0,1-1.7-2.441L434.872,1.18a1.81,1.81,0,0,1,3.393,1.261L427.706,30.856a1.811,1.811,0,0,1-1.7,1.18" transform="translate(-401.266 0)" fill="#171717"></path><path id="Path_24220" data-name="Path 24220" d="M19.429,98.582a1.8,1.8,0,0,1-.9-.243L.9,88.166a1.81,1.81,0,0,1,0-3.135L18.526,74.857a1.81,1.81,0,1,1,1.81,3.135L5.43,86.6,20.336,95.2a1.81,1.81,0,0,1-.907,3.378" transform="translate(0 -70.581)" fill="#171717"></path><path id="Path_24221" data-name="Path 24221" d="M719.6,98.582a1.81,1.81,0,0,1-.907-3.378L733.6,86.6l-14.906-8.606a1.81,1.81,0,0,1,1.81-3.135l17.621,10.174a1.81,1.81,0,0,1,0,3.135L720.5,98.339a1.8,1.8,0,0,1-.9.243" transform="translate(-678.981 -70.581)" fill="#171717"></path></g></g><g id="Group_2234" data-name="Group 2234" transform="translate(1267 3058.324)"><g id="Group_2233" data-name="Group 2233" clip-path="url(#clip-path-6)"><path id="Path_24222" data-name="Path 24222" d="M57.732,0H4.2A4.207,4.207,0,0,0,0,4.2V38.784a4.208,4.208,0,0,0,4.2,4.2h5.829v8.226c0,1.721,1,2.134,2.213.917l9.143-9.142H57.733a4.207,4.207,0,0,0,4.2-4.2V4.2a4.207,4.207,0,0,0-4.2-4.2M49.7,22.535l.389,2.271a.516.516,0,0,1-.748.544L47.3,24.278a.513.513,0,0,0-.48,0L44.779,25.35a.516.516,0,0,1-.748-.544l.389-2.271a.515.515,0,0,0-.149-.456l-1.649-1.608a.515.515,0,0,1,.286-.88l2.28-.331a.517.517,0,0,0,.388-.282l1.02-2.066a.516.516,0,0,1,.925,0l1.02,2.066a.517.517,0,0,0,.388.282l2.28.331a.515.515,0,0,1,.286.88l-1.649,1.608a.515.515,0,0,0-.149.456m-16.091,0,.389,2.271a.516.516,0,0,1-.748.544l-2.039-1.072a.513.513,0,0,0-.48,0L28.688,25.35a.516.516,0,0,1-.748-.544l.389-2.271a.516.516,0,0,0-.148-.456l-1.65-1.608a.516.516,0,0,1,.286-.88l2.28-.331a.518.518,0,0,0,.389-.282L30.5,16.911a.516.516,0,0,1,.925,0l1.019,2.066a.518.518,0,0,0,.389.282l2.28.331a.515.515,0,0,1,.286.88l-1.65,1.608a.516.516,0,0,0-.148.456m-22.88-2.944,2.28-.331a.519.519,0,0,0,.389-.282l1.019-2.066a.516.516,0,0,1,.925,0l1.019,2.066a.518.518,0,0,0,.389.282l2.28.331a.516.516,0,0,1,.286.88l-1.65,1.608a.517.517,0,0,0-.148.456l.389,2.271a.516.516,0,0,1-.748.544l-2.039-1.072a.513.513,0,0,0-.48,0L12.6,25.35a.516.516,0,0,1-.749-.544l.39-2.271a.516.516,0,0,0-.148-.456l-1.65-1.608a.515.515,0,0,1,.286-.88" fill="#171717"></path></g></g><g id="Rectangle_833" data-name="Rectangle 833" transform="translate(737 2499)" fill="#ff6c50" stroke="#000" stroke-width="1"><rect width="102" height="528" stroke="none"></rect><rect x="0.5" y="0.5" width="101" height="527" fill="none"></rect></g><g id="Rectangle_834" data-name="Rectangle 834" transform="translate(839 2410)" fill="#ff6c50" stroke="#000" stroke-width="1"><rect width="102" height="617" stroke="none"></rect><rect x="0.5" y="0.5" width="101" height="616" fill="none"></rect></g><g id="Rectangle_835" data-name="Rectangle 835" transform="translate(941 2585)" fill="#ff6c50" stroke="#000" stroke-width="1"><rect width="102" height="442" stroke="none"></rect><rect x="0.5" y="0.5" width="101" height="441" fill="none"></rect></g><g id="Rectangle_836" data-name="Rectangle 836" transform="translate(1043 2499)" fill="#ff6c50" stroke="#000" stroke-width="1"><rect width="102" height="528" stroke="none"></rect><rect x="0.5" y="0.5" width="101" height="527" fill="none"></rect></g><g id="Rectangle_837" data-name="Rectangle 837" transform="translate(1145 2992)" fill="#ff6c50" stroke="#000" stroke-width="1"><rect width="102" height="35" stroke="none"></rect><rect x="0.5" y="0.5" width="101" height="34" fill="none"></rect></g><g id="Rectangle_838" data-name="Rectangle 838" transform="translate(1247 2789)" fill="#ff6c50" stroke="#000" stroke-width="1"><rect width="102" height="238" stroke="none"></rect><rect x="0.5" y="0.5" width="101" height="237" fill="none"></rect></g><g id="Rectangle_839" data-name="Rectangle 839" transform="translate(1349 2410)" fill="#ff6c50" stroke="#000" stroke-width="1"><rect width="102" height="617" stroke="none"></rect><rect x="0.5" y="0.5" width="101" height="616" fill="none"></rect></g><g id="Rectangle_840" data-name="Rectangle 840" transform="translate(1451 2992)" fill="#ff6c50" stroke="#000" stroke-width="1"><rect width="102" height="35" stroke="none"></rect><rect x="0.5" y="0.5" width="101" height="34" fill="none"></rect></g></g></g></svg>